HIERARCHY
ROOT hip
{
  OFFSET 0 0 0
  CHANNELS 6 Xposition Yposition Zposition Zrotation Yrotation Xrotation
  JOINT abdomen
  {
    OFFSET 0 20.6881 -0.73152
    CHANNELS 3 Zrotation Xrotation Yrotation
    JOINT chest
    {
      OFFSET 0 11.7043 -0.48768
      CHANNELS 3 Zrotation Xrotation Yrotation
      JOINT neck
      {
        OFFSET 0 22.1894 -2.19456
        CHANNELS 3 Zrotation Xrotation Yrotation
        JOINT head
        {
          OFFSET -0.24384 7.07133 1.2192
          CHANNELS 3 Zrotation Xrotation Yrotation
          JOINT leftEye
          {
            OFFSET 4.14528 8.04674 8.04672
            CHANNELS 3 Zrotation Xrotation Yrotation
            End Site
            {
              OFFSET 1 0 0
            }
          }
          JOINT rightEye
          {
            OFFSET -3.6576 8.04674 8.04672
            CHANNELS 3 Zrotation Xrotation Yrotation
            End Site
            {
              OFFSET 1 0 0
            }
          }
        }
      }
      JOINT rCollar
      {
        OFFSET -2.68224 19.2634 -4.8768
        CHANNELS 3 Zrotation Xrotation Yrotation
        JOINT rShldr
        {
          OFFSET -8.77824 -1.95073 1.46304
          CHANNELS 3 Zrotation Xrotation Yrotation
          JOINT rForeArm
          {
            OFFSET -28.1742 -1.7115 0.48768
            CHANNELS 3 Zrotation Xrotation Yrotation
            JOINT rHand
            {
              OFFSET -22.5879 0.773209 7.07136
              CHANNELS 3 Zrotation Xrotation Yrotation
              JOINT rThumb1
              {
                OFFSET -1.2192 -0.487915 3.41376
                CHANNELS 3 Zrotation Xrotation Yrotation
                JOINT rThumb2
                {
                  OFFSET -3.37035 -0.52449 3.41376
                  CHANNELS 3 Zrotation Xrotation Yrotation
                  End Site
                  {
                    OFFSET -1.78271 -1.18214 1.43049
                  }
                }
              }
              JOINT rIndex1
              {
                OFFSET -7.75947 0.938293 5.60832
                CHANNELS 3 Zrotation Xrotation Yrotation
                JOINT rIndex2
                {
                  OFFSET -2.54057 -0.884171 1.56538
                  CHANNELS 3 Zrotation Xrotation Yrotation
                  End Site
                  {
                    OFFSET -1.62519 -0.234802 1.16502
                  }
                }
              }
              JOINT rMid1
              {
                OFFSET -8.24714 1.18213 3.41376
                CHANNELS 3 Zrotation Xrotation Yrotation
                JOINT rMid2
                {
                  OFFSET -3.10165 -0.590103 1.0647
                  CHANNELS 3 Zrotation Xrotation Yrotation
                  End Site
                  {
                    OFFSET -2.48547 -0.328903 0.83742
                  }
                }
              }
              JOINT rRing1
              {
                OFFSET -8.82822 0.546677 1.51678
                CHANNELS 3 Zrotation Xrotation Yrotation
                JOINT rRing2
                {
                  OFFSET -2.60934 -0.819778 -0.0198488
                  CHANNELS 3 Zrotation Xrotation Yrotation
                  End Site
                  {
                    OFFSET -2.33842 -0.294052 0.168128
                  }
                }
              }
              JOINT rPinky1
              {
                OFFSET -8.27202 -0.0477905 -0.4584
                CHANNELS 3 Zrotation Xrotation Yrotation
                JOINT rPinky2
                {
                  OFFSET -1.82734 -0.647385 -0.700984
                  CHANNELS 3 Zrotation Xrotation Yrotation
                  End Site
                  {
                    OFFSET -1.69225 -0.51767 -0.607171
                  }
                }
              }
            }
          }
        }
      }
      JOINT lCollar
      {
        OFFSET 2.68224 19.2634 -4.8768
        CHANNELS 3 Zrotation Xrotation Yrotation
        JOINT lShldr
        {
          OFFSET 8.77824 -1.95073 1.46304
          CHANNELS 3 Zrotation Xrotation Yrotation
          JOINT lForeArm
          {
            OFFSET 28.1742 -1.7115 0.48768
            CHANNELS 3 Zrotation Xrotation Yrotation
            JOINT lHand
            {
              OFFSET 22.5879 0.773209 7.07136
              CHANNELS 3 Zrotation Xrotation Yrotation
              JOINT lThumb1
              {
                OFFSET 1.2192 -0.487915 3.41376
                CHANNELS 3 Zrotation Xrotation Yrotation
                JOINT lThumb2
                {
                  OFFSET 3.37035 -0.52449 3.41376
                  CHANNELS 3 Zrotation Xrotation Yrotation
                  End Site
                  {
                    OFFSET 1.78271 -1.18214 1.43049
                  }
                }
              }
              JOINT lIndex1
              {
                OFFSET 7.75947 0.938293 5.60832
                CHANNELS 3 Zrotation Xrotation Yrotation
                JOINT lIndex2
                {
                  OFFSET 2.54057 -0.884171 1.56538
                  CHANNELS 3 Zrotation Xrotation Yrotation
                  End Site
                  {
                    OFFSET 1.62519 -0.234802 1.16502
                  }
                }
              }
              JOINT lMid1
              {
                OFFSET 8.24714 1.18213 3.41376
                CHANNELS 3 Zrotation Xrotation Yrotation
                JOINT lMid2
                {
                  OFFSET 3.10165 -0.590103 1.0647
                  CHANNELS 3 Zrotation Xrotation Yrotation
                  End Site
                  {
                    OFFSET 2.48547 -0.328903 0.83742
                  }
                }
              }
              JOINT lRing1
              {
                OFFSET 8.82822 0.546677 1.51678
                CHANNELS 3 Zrotation Xrotation Yrotation
                JOINT lRing2
                {
                  OFFSET 2.60934 -0.819778 -0.0198488
                  CHANNELS 3 Zrotation Xrotation Yrotation
                  End Site
                  {
                    OFFSET 2.33842 -0.294052 0.168128
                  }
                }
              }
              JOINT lPinky1
              {
                OFFSET 8.27202 -0.0477905 -0.4584
                CHANNELS 3 Zrotation Xrotation Yrotation
                JOINT lPinky2
                {
                  OFFSET 1.82734 -0.647385 -0.700984
                  CHANNELS 3 Zrotation Xrotation Yrotation
                  End Site
                  {
                    OFFSET 1.69225 -0.51767 -0.607171
                  }
                }
              }
            }
          }
        }
      }
    }
  }
  JOINT rButtock
  {
    OFFSET -8.77824 4.35084 1.2192
    CHANNELS 3 Zrotation Xrotation Yrotation
    JOINT rThigh
    {
      OFFSET 0 -1.70687 -2.19456
      CHANNELS 3 Zrotation Xrotation Yrotation
      JOINT rShin
      {
        OFFSET 0 -36.8199 0.73152
        CHANNELS 3 Zrotation Xrotation Yrotation
        JOINT rFoot
        {
          OFFSET 0.73152 -45.1104 -5.12064
          CHANNELS 3 Zrotation Xrotation Yrotation
          End Site
          {
            OFFSET -1.1221 -3.69964 12.103
          }
        }
      }
    }
  }
  JOINT lButtock
  {
    OFFSET 8.77824 4.35084 1.2192
    CHANNELS 3 Zrotation Xrotation Yrotation
    JOINT lThigh
    {
      OFFSET 0 -1.70687 -2.19456
      CHANNELS 3 Zrotation Xrotation Yrotation
      JOINT lShin
      {
        OFFSET 0 -36.8199 0.73152
        CHANNELS 3 Zrotation Xrotation Yrotation
        JOINT lFoot
        {
          OFFSET -0.73152 -45.1104 -5.12064
          CHANNELS 3 Zrotation Xrotation Yrotation
          End Site
          {
            OFFSET 1.1221 -3.69964 12.103
          }
        }
      }
    }
  }
}
MOTION
Frames:	4
Frame Time:	0.03333
-0.2843000074560223 72.31710036598955 -0.2920000052085803 120.80699157714844 75.0213851928711 118.33200073242188 -9.020499229431152 40.45980453491211 16.144100189208984 -6.980649471282959 -11.480701446533203 3.2480499744415283 0.3262450098991394 14.112601280212402 11.490199089050293 -6.377239227294922 -28.80959701538086 21.3572998046875 -0.0 0.0 -0.0 -0.0 0.0 -0.0 -9.860979695015641e-15 2.1052698972144623e-13 2.3239198651374415e-13 8.194389343261719 56.231197357177734 51.77300262451172 -26.949398040771484 -44.150203704833984 91.74230194091797 -0.048566095530986786 6.181390762329102 0.8723879456520081 -3.4281200100849674e-10 2.185819880651252e-08 3.1096898389648686e-09 -5.872689556873922e-10 3.7816995757111727e-08 5.380619505501727e-09 -3.4281097405219896e-10 2.185819880651252e-08 3.1096700769950303e-09 7.730909824371338 5.474879741668701 0.4173140823841095 -3.428130002092189e-10 2.1858099330529512e-08 3.1096898389648686e-09 2.9055399894714355 0.9651829600334167 0.10290199518203735 -3.42804978847866e-10 2.185819880651252e-08 3.1096898389648686e-09 10.27859878540039 0.73180091381073 0.025912316516041756 -3.4281699701210755e-10 2.185819880651252e-08 3.1096898389648686e-09 2.221669912338257 -0.733487069606781 -0.208919957280159 -9.918789693665747e-15 2.1053499926499547e-13 2.323109966114595e-13 -57.83689880371094 3.520739793777466 -9.4479398727417 25.761899948120117 -46.705596923828125 -97.08780670166016 1.6994600296020508 -34.31270217895508 5.503520488739014 -3.818579674685907e-09 2.171280044649393e-09 -1.806429894557482e-09 -6.556270193414093e-09 3.6215097587444234e-09 -3.2139400030217757e-09 -3.8185898887377334e-09 2.171280044649393e-09 -1.8064200135725628e-09 -7.730909824371338 5.474879741668701 -0.4173140823841095 -3.818579674685907e-09 2.1712700526421713e-09 -1.8064200135725628e-09 -2.9055399894714355 0.9651829600334167 -0.10290199518203735 -3.8185898887377334e-09 2.1712700526421713e-09 -1.806429894557482e-09 -10.27859878540039 0.73180091381073 -0.025912316516041756 -3.818579674685907e-09 2.1712700526421713e-09 -1.806429894557482e-09 -2.221669912338257 -0.733487069606781 0.208919957280159 -2.0321699480147914e-16 0.0 -3.8825099822884138e-19 -28.809797286987305 -31.64190101623535 -25.737201690673828 -0.9754329323768616 63.78169631958008 2.907709836959839 -6.497419834136963 -15.20150089263916 -18.60169792175293 2.0321699480147914e-16 0.0 3.8825099822884138e-19 124.0719985961914 -52.50539779663086 113.5719985961914 176.43698120117188 64.91011047363281 -176.97999572753906 -1.927649974822998 3.4691500663757324 -11.53139877319336
-0.501700006198849 71.58530023793604 -0.6619999970063394 123.7909927368164 75.88340759277344 121.65699768066406 -8.647489547729492 39.500701904296875 15.644201278686523 -7.043329238891602 -11.28860092163086 3.1851999759674072 0.1976030021905899 14.192599296569824 11.763598442077637 -6.0259199142456055 -28.67999839782715 21.979000091552734 -0.0 0.0 -0.0 -0.0 0.0 -0.0 3.146039947109734e-14 3.12485009656277e-13 2.322299796041205e-13 9.23267936706543 56.93769454956055 51.119998931884766 -26.897598266601562 -44.2843017578125 92.01089477539062 -0.06303180754184723 7.145411014556885 1.0095100402832031 -7.783299560415458e-10 1.6644499112317135e-08 2.3326298670411916e-09 -1.3376200147519057e-09 2.8798099904747687e-08 4.037989942418108e-09 -7.783270139505305e-10 1.6644499112317135e-08 2.33261987503397e-09 7.730909824371338 5.474879741668701 0.4173140823841095 -7.783320099541413e-10 1.6644499112317135e-08 2.3326298670411916e-09 2.9055399894714355 0.9651829600334167 0.10290199518203735 -7.783229616364906e-10 1.6644499112317135e-08 2.3326298670411916e-09 10.27859878540039 0.73180091381073 0.025912316516041756 -7.783350075563078e-10 1.6644499112317135e-08 2.3326298670411916e-09 2.221669912338257 -0.733487069606781 -0.208919957280159 3.1407199025746194e-14 3.1249400853430864e-13 2.320809831205667e-13 -57.37619400024414 3.6105408668518066 -10.173998832702637 25.569299697875977 -47.06149673461914 -97.84650421142578 1.610050082206726 -33.523197174072266 5.342190265655518 -1.7441700306264352e-09 1.3299400469790612e-09 -3.3709096625145207e-10 -3.0136999562557776e-09 2.269869847637551e-09 -6.154689535797786e-10 -1.7441700306264352e-09 1.3299400469790612e-09 -3.3710101376982493e-10 -7.730909824371338 5.474879741668701 -0.4173140823841095 -1.7441700306264352e-09 1.3299400469790612e-09 -3.3709396385361856e-10 -2.9055399894714355 0.9651829600334167 -0.10290199518203735 -1.7441799116113543e-09 1.3299299439495371e-09 -3.3709396385361856e-10 -10.27859878540039 0.73180091381073 -0.025912316516041756 -1.744159927596911e-09 1.3299299439495371e-09 -3.3709698921136066e-10 -2.221669912338257 -0.733487069606781 0.208919957280159 -2.0321699480147914e-16 0.0 -3.8825099822884138e-19 -28.967599868774414 -32.743404388427734 -26.776803970336914 -1.1089198589324951 65.08000946044922 2.907529830932617 -6.63417911529541 -15.44530200958252 -18.558698654174805 2.0321699480147914e-16 0.0 3.8825099822884138e-19 117.76298522949219 -55.91281509399414 105.33999633789062 176.02499389648438 69.347900390625 -176.8079833984375 -1.4886999130249023 5.856959819793701 -13.05270004272461
-0.6656000002868253 70.89569701857488 -1.0999999914789966 126.38497924804688 76.63650512695312 124.60799407958984 -8.502429962158203 38.534305572509766 15.307099342346191 -7.010919570922852 -11.169301986694336 3.1394295692443848 0.13449899852275848 14.300600051879883 12.04439926147461 -5.8939995765686035 -28.52740478515625 22.560901641845703 -0.0 0.0 -0.0 -0.0 0.0 -0.0 -8.123350218403394e-14 -1.8920100403919948e-13 2.253259970101673e-13 10.150699615478516 57.662803649902344 50.436302185058594 -26.86050033569336 -44.37809753417969 92.19999694824219 -0.10458800196647644 9.415262222290039 1.3344699144363403 1.4058899600044583e-09 3.948640081574695e-09 1.217999923142088e-09 2.426130185639863e-09 6.774089733596611e-09 2.091709916385298e-09 1.40589995201168e-09 3.948640081574695e-09 1.217999923142088e-09 7.730909824371338 5.474879741668701 0.4173140823841095 1.4058899600044583e-09 3.9486200975602515e-09 1.2180099151493096e-09 2.9055399894714355 0.9651829600334167 0.10290199518203735 1.40589995201168e-09 3.948640081574695e-09 1.2180099151493096e-09 10.27859878540039 0.73180091381073 0.025912316516041756 1.4058899600044583e-09 3.948640081574695e-09 1.2180199071565312e-09 2.221669912338257 -0.733487069606781 -0.208919957280159 -8.126909789660935e-14 -1.8918600139163771e-13 2.2506798399817007e-13 -57.11669921875 3.663180351257324 -10.77549934387207 25.420499801635742 -47.313297271728516 -98.41079711914062 1.6162099838256836 -33.575199127197266 5.352940082550049 -2.9591797900963e-09 1.6179398931726041e-09 -1.20935994551985e-09 -5.083319543075504e-09 2.7009099401453796e-09 -2.1688499884930934e-09 -2.9591797900963e-09 1.6179398931726041e-09 -1.20935994551985e-09 -7.730909824371338 5.474879741668701 -0.4173140823841095 -2.9591797900963e-09 1.6179398931726041e-09 -1.20935994551985e-09 -2.9055399894714355 0.9651829600334167 -0.10290199518203735 -2.9591900041481267e-09 1.6179398931726041e-09 -1.20935994551985e-09 -10.27859878540039 0.73180091381073 -0.025912316516041756 -2.9591697980890785e-09 1.6179398931726041e-09 -1.20935994551985e-09 -2.221669912338257 -0.733487069606781 0.208919957280159 -2.0321699480147914e-16 0.0 -3.8825099822884138e-19 -29.314098358154297 -33.76729965209961 -27.67660140991211 -1.2463098764419556 66.27751159667969 2.919769525527954 -6.740009784698486 -15.658599853515625 -18.459802627563477 2.0321699480147914e-16 0.0 3.8825099822884138e-19 109.4540023803711 -58.515499114990234 95.4236068725586 175.25299072265625 74.18489837646484 -176.2429962158203 -0.9715340733528137 7.7784905433654785 -14.012800216674805
-0.7423000031077736 70.25469742534752 -1.6170000082848577 128.4929962158203 77.35768127441406 127.09300231933594 -8.400890350341797 37.54460144042969 15.035300254821777 -7.000450134277344 -11.042598724365234 3.1002700328826904 0.10545700043439865 14.391200065612793 12.316498756408691 -5.782070636749268 -28.297800064086914 23.11859703063965 -0.0 0.0 -0.0 -0.0 0.0 -0.0 -1.637719907604529e-13 -6.007360407733753e-13 1.3691299613136088e-13 10.988999366760254 58.3978157043457 49.76249694824219 -26.823101043701172 -44.472801208496094 92.38969421386719 -0.1649019867181778 11.496699333190918 1.638010025024414 3.129690062664281e-09 -7.62001928222844e-09 9.258590422112078e-12 5.394939606162552e-09 -1.328020005075814e-08 -1.252029990100878e-11 3.1296998326268977e-09 -7.62004948029471e-09 9.261779711222662e-12 7.730909824371338 5.474879741668701 0.4173140823841095 3.129690062664281e-09 -7.62004948029471e-09 9.264960326715865e-12 2.9055399894714355 0.9651829600334167 0.10290199518203735 3.1296998326268977e-09 -7.62001928222844e-09 9.261779711222662e-12 10.27859878540039 0.73180091381073 0.025912316516041756 3.1296798486124544e-09 -7.62001928222844e-09 9.271319822978796e-12 2.221669912338257 -0.733487069606781 -0.208919957280159 -1.6378700696054183e-13 -6.007179888072034e-13 1.365650078915745e-13 -56.96820068359375 3.650620460510254 -11.257100105285645 25.321796417236328 -47.480194091796875 -98.78040313720703 1.660639762878418 -33.969207763671875 5.433248996734619 -3.795789904614821e-09 1.7299399690529071e-09 -1.9670698403473352e-09 -6.5027196960443234e-09 2.838929979986915e-09 -3.5129401609879096e-09 -3.795800118666648e-09 1.7299499610601288e-09 -1.967050078377497e-09 -7.730909824371338 5.474879741668701 -0.4173140823841095 -3.795789904614821e-09 1.7299399690529071e-09 -1.9670698403473352e-09 -2.9055399894714355 0.9651829600334167 -0.10290199518203735 -3.795800118666648e-09 1.7299399690529071e-09 -1.9670698403473352e-09 -10.27859878540039 0.73180091381073 -0.025912316516041756 -3.795789904614821e-09 1.7299399690529071e-09 -1.9670698403473352e-09 -2.221669912338257 -0.733487069606781 0.208919957280159 -2.0321699480147914e-16 0.0 -3.8825099822884138e-19 -29.76909828186035 -34.680999755859375 -28.47760009765625 -1.3872900009155273 67.37738800048828 2.9402103424072266 -6.812419414520264 -15.85159969329834 -18.289600372314453 2.0321699480147914e-16 0.0 3.8825099822884138e-19 99.56629943847656 -60.050804138183594 84.10569763183594 173.64797973632812 79.29591369628906 -174.81199645996094 -0.3894180357456207 9.65282917022705 -14.39840030670166
